<svg width="171" height="162" viewBox="0 0 171 162" fill="none" xmlns="http://www.w3.org/2000/svg">
<path d="M58.2026 136.742C59.6986 150.091 98.5929 166.11 106.671 159.435C127.315 138.076 169.949 90.0198 169.949 84.6798C169.949 78.0052 171.37 75.3354 159.178 75.3354C157.64 75.3354 137.188 94.4692 132.252 104.703L164.564 67.326C167.257 61.9865 161.871 56.3799 156.486 57.9818C145.715 61.1856 130.456 79.7852 122.827 90.0196L153.793 49.9722C153.793 46.4125 151.639 39.8269 143.022 41.9628C134.406 44.0986 115.198 71.3307 106.671 84.6798L132.252 47.3022C135.393 45.5224 130.905 35.2879 122.827 40.6276C114.749 45.9672 93.2074 74.0006 81.0903 90.0196L77.0513 64.656C74.8074 61.0962 68.9732 56.1125 63.5878 64.656C58.2024 73.1996 56.1084 118.053 58.2026 136.742Z" stroke="white" stroke-width="6" stroke-linejoin="round"/>
<path d="M19.9882 70.1419C-4.53957 52.3272 37.4055 -5.00239 67.0231 13.4986" stroke="white" stroke-width="6"/>
<path d="M41.4651 75.3136C31.599 71.042 49.0748 44.7399 61.0089 48.7455" stroke="white" stroke-width="6"/>
</svg>
