<?xml version="1.0" encoding="UTF-8"?>
<svg xmlns="http://www.w3.org/2000/svg" xmlns:xlink="http://www.w3.org/1999/xlink" viewBox="0 0 24 24" width="24px" height="24px">
<g id="surface115163943">
<path style=" stroke:none;fill-rule:nonzero;fill:rgb(0%,0%,0%);fill-opacity:1;" d="M 24 5.5625 C 24 4.136719 23.457031 2.707031 22.375 1.625 C 20.210938 -0.539062 16.664062 -0.539062 14.5 1.625 L 10.84375 5.28125 C 10.445312 5.667969 10.441406 6.304688 10.828125 6.703125 C 11.214844 7.101562 11.851562 7.105469 12.25 6.71875 L 15.9375 3.03125 C 17.335938 1.632812 19.570312 1.632812 20.96875 3.03125 C 22.367188 4.429688 22.367188 6.664062 20.96875 8.0625 L 16.0625 12.96875 C 14.664062 14.367188 12.429688 14.367188 11.03125 12.96875 C 10.867188 12.804688 10.75 12.621094 10.625 12.4375 C 10.3125 11.980469 9.691406 11.859375 9.234375 12.171875 C 8.777344 12.484375 8.65625 13.105469 8.96875 13.5625 C 9.164062 13.847656 9.375 14.125 9.625 14.375 C 11.789062 16.539062 15.335938 16.539062 17.5 14.375 L 22.375 9.5 C 23.457031 8.417969 24 6.988281 24 5.5625 Z M 15.125 10.78125 C 15.117188 10.738281 15.105469 10.695312 15.09375 10.65625 C 15.0625 10.507812 15 10.371094 14.90625 10.25 C 14.746094 10.039062 14.570312 9.820312 14.375 9.625 C 12.210938 7.460938 8.664062 7.460938 6.5 9.625 L 1.625 14.5 C -0.539062 16.664062 -0.539062 20.210938 1.625 22.375 C 3.789062 24.539062 7.335938 24.539062 9.5 22.375 L 13.125 18.71875 C 13.421875 18.476562 13.558594 18.089844 13.472656 17.714844 C 13.386719 17.34375 13.09375 17.050781 12.722656 16.964844 C 12.347656 16.878906 11.960938 17.015625 11.71875 17.3125 L 8.0625 20.96875 C 6.664062 22.367188 4.429688 22.367188 3.03125 20.96875 C 1.632812 19.570312 1.632812 17.335938 3.03125 15.9375 L 7.9375 11.03125 C 9.335938 9.632812 11.570312 9.632812 12.96875 11.03125 C 13.09375 11.152344 13.179688 11.300781 13.28125 11.4375 C 13.527344 11.839844 14.023438 12.015625 14.46875 11.855469 C 14.914062 11.699219 15.1875 11.25 15.125 10.78125 Z M 15.125 10.78125 "/>
</g>
</svg>
