<svg width="62" height="59" viewBox="0 0 62 59" fill="none" xmlns="http://www.w3.org/2000/svg">
<path d="M1 24.2486V52.9055M1 24.2486L10.6133 16.2884V32.2089M1 24.2486L10.6133 32.2089M61 24.2486L52.0497 16.2884V31.8905M61 24.2486L52.0497 31.8905M61 24.2486V52.9055M52.0497 31.8905L43.232 40.1691M52.0497 31.8905V5.78091H40.116M61 52.9055V58H1V52.9055M61 52.9055L43.232 40.1691M1 52.9055C5.75138 50.1459 17.3094 43.0985 25.5304 36.985C30.5028 33.2873 33.4862 33.1641 38.7901 36.985L43.232 40.1691M20.2265 40.1691L10.6133 32.2089M10.6133 32.2089V5.78091H22.547M22.547 5.78091L26.5249 2.59682C30.1713 0.898633 32.6392 0.0761307 36.1381 2.59682C38.7901 4.50732 41.1105 6.73618 40.116 5.78091M22.547 5.78091H40.116" stroke="white" stroke-width="2"/>
<path d="M17 15H44" stroke="white" stroke-width="4"/>
<path d="M18 21H35" stroke="white" stroke-width="4"/>
</svg>
