<svg width="167" height="201" viewBox="0 0 167 201" fill="none" xmlns="http://www.w3.org/2000/svg">
<path d="M116.547 14.3354C123.663 23.6724 141.196 29.5379 150.913 21.7186C141.196 29.5379 144.465 48.5196 150.343 56.2327C144.62 48.7226 127.778 40.336 118.755 47.5967C128.472 39.7774 123.818 23.8753 116.547 14.3354Z" fill="#F6FF91" stroke="#F6FF91" stroke-width="2" stroke-linejoin="round"/>
<path d="M95.179 187.972C88.7744 184.901 88.6663 175.358 89.945 168.01C86.156 173.359 80.5378 179.596 73.3846 178.587C79.3317 181.439 77.9446 187.856 76.6693 194.343C81.4785 189.64 88.7744 184.901 95.179 187.972Z" stroke="#F6FF91" stroke-width="2" stroke-linejoin="round"/>
<path d="M15.7069 105.272C19.1825 112.695 30.9371 119.841 38.9618 115.938C30.9371 119.841 25.5934 129.731 28.8696 136.728C26.3251 131.293 14.7099 125.044 7.25841 128.669C14.1407 122.799 17.1167 112.051 15.7069 105.272Z" fill="#F6FF91" stroke="#F6FF91" stroke-width="2" stroke-linejoin="round"/>
</svg>
