<svg width="68" height="66" viewBox="0 0 68 66" fill="none" xmlns="http://www.w3.org/2000/svg">
<path d="M67 11.7805V4H44V62H67V53.1585M67 11.7805H53.3243M67 11.7805V18.8537M67 18.8537H58.2973M67 18.8537V28.0488M67 28.0488H53.3243M67 28.0488V36.5366M67 36.5366H58.2973M67 36.5366V44.3171M67 44.3171H53.3243M67 44.3171V53.1585M67 53.1585H58.2973" stroke="white" stroke-width="3"/>
<path d="M4.8027 20.6793L16.9238 56.5151M4.8027 20.6793L6.91136 11.8997M4.8027 20.6793L9.31271 18.9992M16.9238 56.5151C18.7535 61.9242 22.0584 65.2611 29.1456 62.621C34.9442 60.4609 36.6066 56.7963 34.3196 50.0348M16.9238 56.5151L21.4338 54.835M34.3196 50.0348L22.1985 14.199M34.3196 50.0348L29.1653 51.9549M22.1985 14.199L15.6092 8.65957M22.1985 14.199L17.0442 16.1191M15.6092 8.65957L9.02002 3.1201L6.91136 11.8997M15.6092 8.65957L6.91136 11.8997M9.31271 18.9992L21.4338 54.835M9.31271 18.9992L17.0442 16.1191M21.4338 54.835L29.1653 51.9549M17.0442 16.1191L29.1653 51.9549" stroke="white" stroke-width="3"/>
</svg>
